<?xml version="1.0" encoding="utf-8"?>
<!-- Generator: Adobe Illustrator 28.0.0, SVG Export Plug-In . SVG Version: 6.00 Build 0)  -->
<svg version="1.1" id="Capa_1" xmlns="http://www.w3.org/2000/svg" xmlns:xlink="http://www.w3.org/1999/xlink" x="0px" y="0px"
	 viewBox="0 0 286.9 255.91" style="enable-background:new 0 0 286.9 255.91;" xml:space="preserve">
<style type="text/css">
	.st0{clip-path:url(#SVGID_00000137108177121477006610000003450291875508497049_);}
	.st1{clip-path:url(#SVGID_00000073711722377128517760000015686864133066014339_);fill:#BC0B1B;}
	.st2{clip-path:url(#SVGID_00000002380057170475616560000018313289641403287959_);}
	.st3{clip-path:url(#SVGID_00000072251766806437049570000006696956599376812177_);}
	.st4{display:none;fill:#231F20;}
	.st5{fill:#231F20;}
</style>
<g>
	<defs>
		<rect id="SVGID_1_" x="-98.39" y="22.63" width="469.99" height="370.35"/>
	</defs>
	<clipPath id="SVGID_00000008843715027448436080000004722407313971282339_">
		<use xlink:href="#SVGID_1_"  style="overflow:visible;"/>
	</clipPath>
	<g style="clip-path:url(#SVGID_00000008843715027448436080000004722407313971282339_);">
		<defs>
			<rect id="SVGID_00000038404862307336915600000007151052766749596302_" x="-98.39" y="22.63" width="469.99" height="370.35"/>
		</defs>
		<clipPath id="SVGID_00000010269747098987124490000013954551604997101240_">
			<use xlink:href="#SVGID_00000038404862307336915600000007151052766749596302_"  style="overflow:visible;"/>
		</clipPath>
		<polygon style="clip-path:url(#SVGID_00000010269747098987124490000013954551604997101240_);fill:#BC0B1B;" points="
			176.89,150.75 159.45,120.55 142.01,90.35 176.89,90.35 211.77,90.35 194.33,120.55 		"/>
		<polygon style="clip-path:url(#SVGID_00000010269747098987124490000013954551604997101240_);fill:#BC0B1B;" points="
			107.16,150.75 89.71,120.55 72.28,90.35 107.16,90.35 142.04,90.35 124.6,120.55 		"/>
		<polygon style="clip-path:url(#SVGID_00000010269747098987124490000013954551604997101240_);fill:#BC0B1B;" points="
			142.08,211.09 124.63,180.89 107.19,150.69 142.08,150.69 176.96,150.69 159.52,180.89 		"/>
	</g>
</g>
<g>
	<defs>
		<rect id="SVGID_00000088855079727782535770000010563288540547752381_" x="-98.39" y="22.63" width="469.99" height="370.35"/>
	</defs>
	<clipPath id="SVGID_00000047048823316284536520000012685829279619251620_">
		<use xlink:href="#SVGID_00000088855079727782535770000010563288540547752381_"  style="overflow:visible;"/>
	</clipPath>
	<g style="clip-path:url(#SVGID_00000047048823316284536520000012685829279619251620_);">
		<defs>
			<rect id="SVGID_00000139982356802866452380000012414161937963475636_" x="-98.39" y="22.63" width="469.99" height="370.35"/>
		</defs>
		<clipPath id="SVGID_00000181769378543652329320000011361902318108508574_">
			<use xlink:href="#SVGID_00000139982356802866452380000012414161937963475636_"  style="overflow:visible;"/>
		</clipPath>
		<g style="clip-path:url(#SVGID_00000181769378543652329320000011361902318108508574_);">
			<path class="st4" d="M-28.8,290.29c-6.46-2.92-13.8-4.4-21.81-4.4c-14.02,0-25.62,4.92-34.46,14.62
				c-8.83,9.68-13.31,22.21-13.31,37.23v3.46c0,15.07,4.5,27.6,13.38,37.24c8.89,9.65,20.46,14.55,34.39,14.55
				c8.01,0,15.36-1.46,21.85-4.33c6.49-2.87,11.9-6.79,16.09-11.65l0.16-0.19v-21.24h-16.55l-2.18,14.06
				c-1.75,1.86-4.23,3.37-7.4,4.47c-3.28,1.15-6.95,1.73-10.91,1.73c-8.49,0-15.16-3.21-19.81-9.54c-4.69-6.4-7.08-14.84-7.08-25.1
				v-3.6c0-10.26,2.39-18.68,7.11-25.03c4.67-6.29,11.44-9.48,20.12-9.48c4.09,0,7.68,0.58,10.68,1.72c2.9,1.11,5.35,2.62,7.28,4.5
				l2.18,14.04h16.55v-21.25l-0.16-0.19C-16.92,297.12-22.34,293.21-28.8,290.29"/>
			<polygon class="st4" points="10.3,301 21.32,303.12 21.32,375.82 10.3,377.93 10.3,391.5 54.22,391.5 54.22,377.93 43.2,375.82 
				43.2,303.12 54.22,301 54.22,287.37 10.3,287.37 			"/>
			<path class="st4" d="M141.33,290.29c-6.46-2.92-13.8-4.4-21.81-4.4c-14.02,0-25.62,4.92-34.46,14.62
				c-8.83,9.68-13.31,22.21-13.31,37.23v3.46c0,15.07,4.5,27.6,13.38,37.24c8.9,9.65,20.46,14.55,34.39,14.55
				c8.01,0,15.36-1.46,21.85-4.33c6.49-2.87,11.9-6.79,16.09-11.65l0.16-0.19v-21.24h-16.55l-2.18,14.06
				c-1.75,1.86-4.23,3.37-7.4,4.47c-3.28,1.15-6.95,1.73-10.9,1.73c-8.49,0-15.16-3.21-19.81-9.54c-4.69-6.4-7.08-14.84-7.08-25.1
				v-3.6c0-10.26,2.39-18.68,7.11-25.03c4.67-6.29,11.44-9.48,20.12-9.48c4.09,0,7.68,0.58,10.68,1.72c2.9,1.11,5.35,2.62,7.27,4.5
				l2.18,14.04h16.55v-21.25l-0.16-0.19C153.22,297.12,147.79,293.21,141.33,290.29"/>
			<path class="st4" d="M248.26,342.96c-5.91-5.22-14.68-9.47-26.05-12.63c-7.81-2.46-13.37-4.82-16.53-7.01
				c-3.06-2.12-4.56-4.75-4.56-8.04c0-3.58,1.43-6.42,4.37-8.69c2.95-2.28,7.22-3.43,12.7-3.43c3.79,0,7.42,0.42,10.79,1.25
				c3.2,0.79,5.69,1.71,7.4,2.73l2.73,14.37h16.68v-21.99l-0.21-0.2c-4.47-4.04-10.05-7.31-16.6-9.73
				c-6.54-2.42-13.89-3.64-21.85-3.64c-10.79,0.14-19.88,2.93-27.02,8.29c-7.2,5.4-10.86,12.46-10.86,20.97
				c0,8.6,3.25,15.48,9.65,20.43c6.3,4.88,15.69,9.14,27.9,12.68c6.89,2.08,11.76,4.32,14.49,6.65c2.67,2.29,3.97,5.24,3.97,9.03
				c0,3.68-1.36,6.54-4.16,8.73c-2.81,2.2-7.01,3.32-12.48,3.32c-4.29,0-8.23-0.55-11.71-1.63c-3.34-1.04-6.04-2.36-8.02-3.92
				l-2.23-14.92h-17.2v22.39l0.18,0.19c4.43,4.62,10.03,8.28,16.66,10.89c6.62,2.61,14.13,3.93,22.32,3.93
				c11.49,0,20.88-2.61,27.93-7.75c7.12-5.2,10.73-12.38,10.73-21.37C257.28,355.28,254.24,348.25,248.26,342.96"/>
			<path class="st4" d="M364.09,376.82l-30.94-89.01l-0.15-0.45h-22.06l-31.31,89.46l-7.52,1.09v13.59h36.36v-13.57l-6.93-1.24
				l4.14-12.94h32.37l4.14,12.94l-6.94,1.24v13.57h36.36v-13.59L364.09,376.82z M332.74,347.24h-21.78l10.89-34.06L332.74,347.24z"
				/>
			<path class="st5" d="M240.47,84.78C214.99,29.12,147.22,5.89,92.52,35.69C46.35,60.84,25.4,117.15,43.89,166.36
				c21.91,58.29,88.39,85,144.06,59.52c5.63-2.58,11.06-5.65,16.13-9.13l3.74-2.57l-11.54-16.79l-3.74,2.57
				c-4.1,2.82-8.49,5.31-13.06,7.4c-45.03,20.6-98.78-1-116.5-48.14c-14.96-39.79,1.99-85.32,39.33-105.66
				c44.23-24.1,99.03-5.32,119.64,39.7c9.79,21.39,10.42,45.17,2.07,66.73l-11.39-7.85l-4.05,50.48l45.76-21.73l-13.18-9.08
				C253.39,143.99,253.27,112.73,240.47,84.78"/>
		</g>
	</g>
</g>
<path class="st4" d="M351.8,86.86c-6.46-2.92-13.8-4.4-21.81-4.4c-14.02,0-25.62,4.92-34.46,14.62
	c-8.83,9.68-13.31,22.21-13.31,37.23v3.46c0,15.07,4.5,27.6,13.38,37.24c8.89,9.65,20.46,14.55,34.39,14.55
	c8.01,0,15.36-1.46,21.85-4.33c6.49-2.87,11.9-6.79,16.09-11.65l0.16-0.19v-21.24h-16.55l-2.18,14.06c-1.75,1.86-4.23,3.37-7.4,4.47
	c-3.28,1.15-6.95,1.73-10.91,1.73c-8.49,0-15.16-3.21-19.81-9.54c-4.69-6.4-7.08-14.84-7.08-25.1v-3.6
	c0-10.26,2.39-18.68,7.11-25.03c4.67-6.29,11.44-9.48,20.12-9.48c4.09,0,7.68,0.58,10.68,1.72c2.9,1.11,5.35,2.62,7.28,4.5
	l2.18,14.04h16.55V98.69l-0.16-0.19C363.68,93.7,358.26,89.79,351.8,86.86"/>
<polygon class="st4" points="390.91,97.58 401.92,99.7 401.92,172.39 390.91,174.51 390.91,188.08 434.82,188.08 434.82,174.51 
	423.8,172.39 423.8,99.7 434.82,97.58 434.82,83.94 390.91,83.94 "/>
<path class="st4" d="M521.94,86.86c-6.46-2.92-13.8-4.4-21.81-4.4c-14.02,0-25.62,4.92-34.46,14.62
	c-8.83,9.68-13.31,22.21-13.31,37.23v3.46c0,15.07,4.5,27.6,13.38,37.24c8.9,9.65,20.46,14.55,34.39,14.55
	c8.01,0,15.36-1.46,21.85-4.33c6.49-2.87,11.9-6.79,16.09-11.65l0.16-0.19v-21.24h-16.55l-2.18,14.06c-1.75,1.86-4.23,3.37-7.4,4.47
	c-3.28,1.15-6.95,1.73-10.9,1.73c-8.49,0-15.16-3.21-19.81-9.54c-4.69-6.4-7.08-14.84-7.08-25.1v-3.6c0-10.26,2.39-18.68,7.11-25.03
	c4.67-6.29,11.44-9.48,20.12-9.48c4.09,0,7.68,0.58,10.68,1.72c2.9,1.11,5.35,2.62,7.27,4.5l2.18,14.04h16.55V98.69l-0.16-0.19
	C533.82,93.7,528.4,89.79,521.94,86.86"/>
<path class="st4" d="M628.86,139.54c-5.91-5.22-14.68-9.47-26.05-12.63c-7.81-2.46-13.37-4.82-16.53-7.01
	c-3.06-2.12-4.56-4.75-4.56-8.04c0-3.58,1.43-6.42,4.37-8.69c2.95-2.28,7.22-3.43,12.7-3.43c3.79,0,7.42,0.42,10.79,1.25
	c3.2,0.79,5.69,1.71,7.4,2.73l2.73,14.37h16.68V96.11l-0.21-0.2c-4.47-4.04-10.05-7.31-16.6-9.73c-6.54-2.42-13.89-3.64-21.85-3.64
	c-10.79,0.14-19.88,2.93-27.02,8.29c-7.2,5.4-10.86,12.46-10.86,20.97c0,8.6,3.25,15.48,9.65,20.43c6.3,4.88,15.69,9.14,27.9,12.68
	c6.89,2.08,11.76,4.32,14.49,6.65c2.67,2.29,3.97,5.24,3.97,9.03c0,3.68-1.36,6.54-4.16,8.73c-2.81,2.2-7.01,3.32-12.48,3.32
	c-4.29,0-8.23-0.55-11.71-1.63c-3.34-1.04-6.04-2.36-8.02-3.92l-2.23-14.92h-17.2v22.39l0.18,0.19c4.43,4.62,10.03,8.28,16.66,10.89
	c6.62,2.61,14.13,3.93,22.32,3.93c11.49,0,20.88-2.61,27.93-7.75c7.12-5.2,10.73-12.38,10.73-21.37
	C637.88,151.86,634.85,144.82,628.86,139.54"/>
<path class="st4" d="M744.69,173.4l-30.95-89.01l-0.15-0.45h-22.06l-31.31,89.46l-7.52,1.09v13.59h36.36v-13.57l-6.93-1.24
	l4.14-12.94h32.37l4.14,12.94l-6.94,1.24v13.57h36.36v-13.59L744.69,173.4z M713.34,143.82h-21.78l10.89-34.06L713.34,143.82z"/>
</svg>
